<?xml version="1.0" encoding="UTF-8"?>
<svg height="16px" viewBox="0 0 16 16" width="16px" xmlns="http://www.w3.org/2000/svg">
    <path d="m 6.5 1.019531 c -0.371094 0 -0.742188 -0.035156 -1.109375 0.015625 c -0.367187 0.050782 -0.730469 0.203125 -0.972656 0.476563 c -0.125 0.140625 -0.214844 0.308593 -0.265625 0.484375 c -0.046875 0.183594 -0.054688 0.367187 -0.019532 0.550781 c 0.03125 0.183594 0.101563 0.355469 0.191407 0.515625 c 0.089843 0.164062 0.203125 0.308594 0.316406 0.457031 l 0.359375 0.46875 h -3 c -0.136719 -0.003906 -0.273438 0.007813 -0.410156 0.035157 c -0.136719 0.035156 -0.257813 0.101562 -0.359375 0.195312 c -0.097657 0.101562 -0.164063 0.226562 -0.195313 0.359375 c -0.035156 0.136719 -0.035156 0.273437 -0.035156 0.410156 v 2.75 l 0.769531 -0.34375 c 0.265625 -0.117187 0.542969 -0.230469 0.832031 -0.242187 c 0.289063 -0.015625 0.585938 0.074218 0.8125 0.253906 c 0.226563 0.183594 0.382813 0.441406 0.464844 0.726562 c 0.082032 0.273438 0.101563 0.566407 0.121094 0.855469 c 0.019531 0.316407 0.039062 0.640625 -0.015625 0.953125 c -0.058594 0.3125 -0.199219 0.613282 -0.429687 0.828125 c -0.242188 0.214844 -0.554688 0.328125 -0.875 0.320313 c -0.316407 -0.007813 -0.617188 -0.125 -0.910157 -0.257813 l -0.769531 -0.34375 v 3.5 c 0 0.140625 0.003906 0.277344 0.035156 0.410157 c 0.03125 0.136718 0.097656 0.261718 0.195313 0.363281 c 0.097656 0.09375 0.226562 0.160156 0.359375 0.191406 c 0.132812 0.035156 0.273437 0.035156 0.410156 0.035156 h 3 l -0.328125 -0.679687 c -0.140625 -0.292969 -0.273437 -0.59375 -0.289063 -0.921875 c -0.015624 -0.320313 0.09375 -0.652344 0.308594 -0.894531 c 0.214844 -0.238282 0.523438 -0.386719 0.839844 -0.453126 c 0.316406 -0.066406 0.644531 -0.058593 0.96875 -0.058593 s 0.652344 -0.007813 0.96875 0.058593 c 0.316406 0.0625 0.625 0.210938 0.839844 0.453126 c 0.214844 0.242187 0.324218 0.574218 0.308594 0.894531 c -0.015626 0.328125 -0.148438 0.632812 -0.289063 0.921875 l -0.328125 0.679687 h 3 c 0.136719 0.003907 0.273438 -0.007812 0.410156 -0.035156 c 0.136719 -0.03125 0.257813 -0.097656 0.359375 -0.191406 c 0.097657 -0.101563 0.164063 -0.226563 0.195313 -0.363281 c 0.035156 -0.132813 0.035156 -0.269532 0.035156 -0.410157 v -3.5625 l 0.703125 0.296875 c 0.289063 0.125 0.589844 0.242188 0.902344 0.246094 s 0.628906 -0.101562 0.863281 -0.308594 c 0.238281 -0.203125 0.386719 -0.496094 0.460938 -0.796875 c 0.070312 -0.308593 0.070312 -0.625 0.070312 -0.9375 s 0 -0.628906 -0.070312 -0.933593 c -0.074219 -0.304688 -0.222657 -0.597657 -0.460938 -0.800782 s -0.546875 -0.316406 -0.863281 -0.308594 c -0.3125 0.007813 -0.613281 0.121094 -0.902344 0.246094 l -0.703125 0.296875 v -2.4375 c 0.003906 -0.136719 -0.007812 -0.273437 -0.035156 -0.410156 c -0.03125 -0.132813 -0.097656 -0.257813 -0.195313 -0.359375 c -0.101562 -0.09375 -0.222656 -0.160156 -0.359375 -0.195312 c -0.132812 -0.035157 -0.273437 -0.035157 -0.410156 -0.035157 h -3 l 0.359375 -0.46875 c 0.113281 -0.148437 0.226563 -0.292969 0.316406 -0.457031 c 0.089844 -0.160156 0.160157 -0.332031 0.191407 -0.511719 c 0.035156 -0.183593 0.027343 -0.371093 -0.019532 -0.554687 c -0.050781 -0.175782 -0.140625 -0.34375 -0.265625 -0.484375 c -0.242187 -0.273438 -0.605469 -0.421875 -0.972656 -0.476563 c -0.367187 -0.046875 -0.738281 -0.015625 -1.109375 -0.015625 z m 0 0" fill="#474747"/>
</svg>
