<?xml version="1.0" encoding="UTF-8"?>
<svg height="128px" viewBox="0 0 128 128" width="128px" xmlns="http://www.w3.org/2000/svg" xmlns:xlink="http://www.w3.org/1999/xlink">
    <linearGradient id="a" gradientUnits="userSpaceOnUse" x1="33.368502" x2="94.871498" y1="70.756" y2="71.3805005">
        <stop offset="0" stop-color="#208757"/>
        <stop offset="0.077" stop-color="#2ec27e"/>
        <stop offset="0.147" stop-color="#208a5a"/>
        <stop offset="0.198" stop-color="#26a269"/>
        <stop offset="0.364" stop-color="#1c774d"/>
        <stop offset="0.407" stop-color="#26a269"/>
        <stop offset="0.493" stop-color="#26a269"/>
        <stop offset="0.576" stop-color="#26a269"/>
        <stop offset="0.606" stop-color="#2ec27e"/>
        <stop offset="0.681" stop-color="#26a269"/>
        <stop offset="0.784" stop-color="#1d7a4e"/>
        <stop offset="0.945" stop-color="#28ab6f"/>
        <stop offset="1" stop-color="#48d493"/>
    </linearGradient>
    <path d="m 44 16 l 8 -8 h 24 l 8 8 z m 0 0" fill="#c0bfbc"/>
    <path d="m 52 8 l -8 8 v 16 h 8 z m 0 0" fill="#f6f5f4"/>
    <path d="m 76 8 l 8 8 v 16 h -8 z m 0 0" fill="#f6f5f4"/>
    <path d="m 16 72 h 96 c 4.417969 0 8 3.582031 8 8 v 28 c 0 4.417969 -3.582031 8 -8 8 h -96 c -4.417969 0 -8 -3.582031 -8 -8 v -28 c 0 -4.417969 3.582031 -8 8 -8 z m 0 0" fill="#deddda"/>
    <path d="m 8 28 h 112 v 80 h -112 z m 0 0" fill="#e5e5e1"/>
    <path d="m 8 68 h 112 v 40 h -112 z m 0 0" fill="#f6f5f4"/>
    <path d="m 43.234375 44.222656 v 2 l 1.019531 8.875 c 0.210938 1.816406 0.527344 3.640625 0.421875 5.46875 c -0.050781 0.914063 -0.230469 1.835938 -0.652343 2.648438 c -0.214844 0.402344 -0.484376 0.78125 -0.824219 1.09375 c -0.335938 0.308594 -0.742188 0.554687 -1.179688 0.679687 c -0.523437 0.148438 -1.078125 0.128907 -1.621093 0.082031 c -0.546876 -0.050781 -1.113282 -0.144531 -1.566407 -0.453124 c -0.199219 -0.136719 -0.367187 -0.308594 -0.542969 -0.472657 c -0.175781 -0.164062 -0.363281 -0.324219 -0.582031 -0.417969 c -0.347656 -0.148437 -0.746093 -0.125 -1.105469 -0.007812 c -0.355468 0.113281 -0.675781 0.316406 -0.984374 0.53125 c -0.59375 0.410156 -1.164063 0.878906 -1.59375 1.460938 c -0.867188 1.171874 -1.101563 2.730468 -0.855469 4.167968 c 0.183593 1.074219 0.628906 2.117188 1.34375 2.945313 c 0.363281 0.417969 0.792969 0.78125 1.285156 1.03125 c 0.488281 0.253906 1.042969 0.386719 1.597656 0.355469 c 0.722657 -0.042969 1.394531 -0.367188 2.054688 -0.664063 c 0.660156 -0.296875 1.359375 -0.578125 2.085937 -0.535156 c 0.414063 0.03125 0.8125 0.160156 1.164063 0.378906 c 0.351562 0.222656 0.65625 0.511719 0.886719 0.855469 c 0.425781 0.621094 0.617187 1.371094 0.765624 2.109375 c 0.917969 4.566406 0.390626 9.410156 -1.488281 13.671875 v 2 c 3.40625 1.171875 6.898438 2.101562 10.441407 2.769531 c 1.179687 0.21875 2.402343 0.410156 3.566406 0.121094 c 0.582031 -0.144531 1.140625 -0.414063 1.574218 -0.828125 c 0.335938 -0.324219 0.585938 -0.726563 0.71875 -1.171875 c 0.132813 -0.445313 0.140626 -0.914063 0.128907 -1.378907 l -0.039063 -1.5 c -0.214844 0.046876 -0.4375 0.03125 -0.644531 -0.039062 c -0.222656 -0.082031 -0.421875 -0.21875 -0.578125 -0.398438 c -0.15625 -0.183593 -0.273438 -0.390624 -0.351562 -0.617187 c -0.15625 -0.449219 -0.175782 -0.933594 -0.175782 -1.40625 c -0.003906 -0.785156 0.03125 -1.59375 0.339844 -2.316406 c 0.316406 -0.730469 0.898438 -1.324219 1.558594 -1.765625 c 1.320312 -0.878906 2.949218 -1.1875 4.535156 -1.207032 c 1.457031 -0.015624 2.960938 0.207032 4.195312 0.976563 c 0.617188 0.386719 1.15625 0.90625 1.519532 1.535156 c 0.363281 0.628907 0.539062 1.371094 0.476562 2.09375 c -0.046875 0.558594 -0.238281 1.101563 -0.507812 1.589844 c -0.339844 0.609375 -0.808594 1.140625 -1.367188 1.554687 c 0.003906 0.5 0.007813 0.996094 0.007813 1.496094 c 0.003906 0.277344 0.003906 0.558594 0.035156 0.832032 c 0.035156 0.273437 0.105469 0.546874 0.238281 0.792968 c 0.191406 0.351563 0.507813 0.621094 0.847656 0.828125 c 0.339844 0.207031 0.710938 0.359375 1.085938 0.492188 c 2.105469 0.730469 4.398438 0.78125 6.601562 0.460937 c 2.820313 -0.414062 5.523438 -1.417968 7.933594 -2.941406 l -0.003906 -2 c -1.484375 -4.070312 -2.070312 -8.414062 -1.71875 -12.734375 c 0.0625 -0.753906 0.15625 -1.519531 0.449219 -2.21875 c 0.144531 -0.351563 0.339843 -0.683594 0.589843 -0.964844 s 0.558594 -0.519531 0.910157 -0.667969 c 0.410156 -0.171874 0.863281 -0.214843 1.304687 -0.179687 c 0.445313 0.03125 0.875 0.148437 1.300782 0.28125 c 0.84375 0.273437 1.671874 0.648437 2.558593 0.710937 c 0.746094 0.050782 1.496094 -0.132812 2.164063 -0.46875 c 0.832031 -0.417968 1.527344 -1.0625 2.007812 -1.855468 c 0.480469 -0.796875 0.726563 -1.714844 0.710938 -2.644532 l 0.085937 -1.128906 c -0.265625 -1.179687 -0.789062 -2.285156 -1.535156 -3.238281 c -0.394531 -0.5 -0.855469 -0.957031 -1.417969 -1.25 c -0.28125 -0.144531 -0.585937 -0.238281 -0.902344 -0.277344 c -0.316406 -0.035156 -0.636718 0 -0.9375 0.105469 c -0.496093 0.183594 -0.886718 0.5625 -1.351562 0.808594 c -0.515625 0.273437 -1.101562 0.371094 -1.683594 0.414062 c -0.574218 0.042969 -1.160156 0.03125 -1.710937 -0.140625 c -0.738281 -0.230469 -1.371094 -0.757812 -1.800781 -1.402343 c -0.429688 -0.648438 -0.667969 -1.40625 -0.796876 -2.164063 c -0.285156 -1.703125 -0.058593 -3.4375 0.132813 -5.148437 c 0.371094 -3.320313 0.59375 -6.652344 0.671875 -9.988282 c -3.539062 -0.777344 -7.058594 -1.628906 -10.558594 -2.558594 c -0.679687 -0.179687 -1.359375 -0.363281 -2.058594 -0.445312 c -0.695312 -0.085938 -1.417968 -0.0625 -2.082031 0.164062 c -0.558593 0.1875 -1.0625 0.515626 -1.464843 0.945313 v 2 c 0 0.207031 0.007812 0.414063 0.054687 0.621094 c 0.046875 0.199219 0.128906 0.394531 0.222656 0.578125 c 0.183594 0.367187 0.410157 0.714844 0.65625 1.046875 c 0.488281 0.664062 1.066407 1.28125 1.382813 2.046875 c 0.34375 0.839844 0.332031 1.804687 0.035156 2.660156 c -0.300781 0.851562 -0.875 1.601562 -1.589844 2.152344 c -0.714844 0.558594 -1.566406 0.929687 -2.449218 1.132812 c -0.882813 0.207032 -1.796876 0.253906 -2.699219 0.203125 c -1.464844 -0.082031 -2.953125 -0.4375 -4.125 -1.316406 c -0.585938 -0.441406 -1.082031 -1.007813 -1.398438 -1.671875 c -0.3125 -0.660156 -0.4375 -1.414062 -0.332031 -2.136719 c 0.144531 -0.988281 0.699219 -1.855469 1.222656 -2.703125 c 0.210938 -0.34375 0.417969 -0.691406 0.539063 -1.070312 c 0.121093 -0.382813 0.148437 -0.785156 0.15625 -1.1875 l 0.027343 -2.269532 c -0.195312 0.269532 -0.515624 0.417969 -0.847656 0.390626 c -0.257812 -0.023438 -0.496094 -0.148438 -0.707031 -0.300782 c -0.207031 -0.152344 -0.398437 -0.328125 -0.613281 -0.46875 c -0.4375 -0.289062 -0.957032 -0.425781 -1.480469 -0.464844 c -0.519531 -0.039062 -1.042969 0.019532 -1.5625 0.09375 c -1.199219 0.179688 -2.382813 0.453126 -3.585937 0.632813 c -1.203126 0.175781 -2.417969 0.230469 -3.632813 0.25 z m 0 0" fill="url(#a)"/>
    <path d="m 43.234375 44.222656 l 1.019531 8.871094 c 0.214844 1.859375 0.582032 3.707031 0.546875 5.578125 c -0.015625 0.929687 -0.167969 1.882813 -0.617187 2.703125 c -0.226563 0.40625 -0.523438 0.78125 -0.894532 1.066406 c -0.367187 0.285156 -0.808593 0.484375 -1.269531 0.546875 c -0.753906 0.097657 -1.5 -0.171875 -2.191406 -0.480469 c -0.6875 -0.3125 -1.375 -0.671874 -2.121094 -0.78125 c -0.734375 -0.101562 -1.492187 0.050782 -2.148437 0.390626 c -0.652344 0.34375 -1.203125 0.871093 -1.601563 1.496093 c -0.800781 1.238281 -0.988281 2.800781 -0.789062 4.265625 c 0.152343 1.109375 0.527343 2.214844 1.257812 3.066406 c 0.363281 0.421876 0.816407 0.777344 1.328125 1.003907 c 0.511719 0.230469 1.082032 0.332031 1.640625 0.261719 c 0.769531 -0.097657 1.460938 -0.5 2.160157 -0.839844 c 0.351562 -0.167969 0.710937 -0.320313 1.089843 -0.410156 c 0.375 -0.09375 0.773438 -0.121094 1.152344 -0.035157 c 0.410156 0.089844 0.785156 0.3125 1.082031 0.609375 c 0.300782 0.292969 0.527344 0.65625 0.6875 1.042969 c 0.320313 0.773437 0.382813 1.628906 0.421875 2.46875 c 0.238281 5.019531 -0.140625 10.050781 -1.125 14.980469 c 3.398438 1.203125 6.894531 2.128906 10.441407 2.765625 c 1.175781 0.214843 2.398437 0.390625 3.554687 0.097656 c 0.582031 -0.148437 1.136719 -0.414063 1.578125 -0.816406 c 0.441406 -0.402344 0.761719 -0.945313 0.855469 -1.539063 c 0.066406 -0.4375 0.003906 -0.894531 -0.125 -1.316406 c -0.132813 -0.429688 -0.335938 -0.832031 -0.550781 -1.222656 c -0.433594 -0.777344 -0.945313 -1.542969 -1.113282 -2.417969 c -0.152344 -0.777344 -0.011718 -1.605469 0.335938 -2.316406 c 0.351562 -0.710938 0.910156 -1.316407 1.5625 -1.769531 c 1.304687 -0.898438 2.949218 -1.191407 4.535156 -1.203126 c 1.457031 -0.011718 2.960938 0.207032 4.195312 0.976563 c 0.617188 0.386719 1.15625 0.90625 1.519532 1.535156 c 0.367187 0.628907 0.550781 1.371094 0.476562 2.09375 c -0.058594 0.554688 -0.261718 1.089844 -0.511718 1.589844 c -0.25 0.503906 -0.546876 0.980469 -0.804688 1.476563 c -0.253906 0.496093 -0.472656 1.023437 -0.554688 1.574218 c -0.078124 0.554688 -0.007812 1.144532 0.277344 1.625 c 0.207032 0.34375 0.511719 0.613282 0.847656 0.824219 c 0.339844 0.210937 0.710938 0.359375 1.085938 0.496094 c 2.433594 0.867187 5.046875 1.097656 7.589844 0.667969 c 2.546875 -0.4375 4.9375 -1.523438 6.941406 -3.148438 l -1.292969 -9.683594 c -0.226562 -1.703125 -0.570312 -3.410156 -0.523437 -5.125 c 0.019531 -0.859375 0.167968 -1.730468 0.570312 -2.488281 c 0.195313 -0.386719 0.464844 -0.726563 0.789063 -1.011719 s 0.710937 -0.488281 1.128906 -0.589844 c 0.402344 -0.089843 0.820313 -0.082031 1.222656 -0.011718 c 0.402344 0.074218 0.792969 0.207031 1.175781 0.355468 c 0.761719 0.296876 1.511719 0.671876 2.324219 0.777344 c 0.75 0.101563 1.527344 -0.027344 2.210938 -0.347656 c 0.6875 -0.320312 1.285156 -0.824219 1.734375 -1.429688 c 0.90625 -1.21875 1.210937 -2.8125 1.023437 -4.316406 c -0.152343 -1.222656 -0.628906 -2.429687 -1.476562 -3.328125 c -0.421875 -0.449219 -0.9375 -0.816406 -1.507813 -1.046875 c -0.570312 -0.238281 -1.195312 -0.34375 -1.808594 -0.285156 c -0.820312 0.082031 -1.578124 0.4375 -2.34375 0.730469 c -0.382812 0.148437 -0.777343 0.28125 -1.179687 0.355469 c -0.402344 0.074218 -0.824219 0.085937 -1.222656 -0.003907 c -0.609375 -0.132812 -1.148438 -0.5 -1.542969 -0.984375 c -0.390625 -0.480468 -0.640625 -1.070312 -0.773438 -1.679687 c -0.261718 -1.214844 -0.0625 -2.476563 0.117188 -3.707031 c 0.59375 -4.128907 0.925781 -8.289063 1 -12.457032 c -3.632812 -1.164062 -7.363281 -1.980468 -11.152344 -2.433594 c -1.164062 -0.140624 -2.375 -0.238281 -3.484375 0.136719 c -0.554687 0.1875 -1.074219 0.5 -1.464843 0.9375 c -0.390626 0.433594 -0.644532 1.003907 -0.65625 1.589844 c -0.011719 0.414063 0.097656 0.824219 0.269531 1.199219 c 0.175781 0.375 0.40625 0.71875 0.65625 1.046875 c 0.5 0.660156 1.074219 1.28125 1.386719 2.046875 c 0.34375 0.839844 0.339843 1.804687 0.042968 2.660156 s -0.875 1.601562 -1.589844 2.160156 c -0.714843 0.554688 -1.566406 0.925782 -2.449218 1.132813 c -0.882813 0.203125 -1.796875 0.25 -2.703125 0.195312 c -1.460938 -0.085937 -2.949219 -0.445312 -4.117188 -1.324219 c -0.582031 -0.441406 -1.078125 -1.011718 -1.394531 -1.667968 c -0.316406 -0.660156 -0.453125 -1.410156 -0.34375 -2.132813 c 0.148438 -0.984375 0.71875 -1.839843 1.199219 -2.710937 c 0.238281 -0.433594 0.460937 -0.882813 0.597656 -1.359375 c 0.140625 -0.476563 0.191406 -0.988281 0.085937 -1.472657 c -0.109374 -0.507812 -0.386718 -0.96875 -0.757812 -1.335937 c -0.367188 -0.363281 -0.824219 -0.628906 -1.3125 -0.808594 c -0.976562 -0.355469 -2.039062 -0.355469 -3.074219 -0.292969 c -3.867187 0.226563 -7.648437 1.226563 -11.128906 2.933594 z m 0 0" fill="#33d17a"/>
</svg>
